<?xml version="1.0" standalone="no"?>
<!DOCTYPE svg PUBLIC "-//W3C//DTD SVG 20010904//EN"
 "http://www.w3.org/TR/2001/REC-SVG-20010904/DTD/svg10.dtd">
<svg version="1.0" xmlns="http://www.w3.org/2000/svg"
 width="56.000000pt" height="56.000000pt" viewBox="0 0 56.000000 56.000000"
 preserveAspectRatio="xMidYMid meet">

<g transform="translate(0.000000,56.000000) scale(0.100000,-0.100000)"
fill="#000000" stroke="none">
<path d="M232 538 c7 -19 38 -22 38 -4 0 10 -9 16 -21 16 -12 0 -19 -5 -17
-12z"/>
<path d="M52 518 c-27 -27 0 -88 39 -88 8 0 3 6 -11 13 -31 16 -39 56 -14 74
10 7 13 13 8 13 -6 0 -15 -5 -22 -12z"/>
<path d="M110 505 c-12 -13 -27 -22 -33 -18 -6 4 -7 1 -2 -6 5 -9 15 -5 36 15
16 15 29 29 29 31 0 7 -8 1 -30 -22z"/>
<path d="M122 462 c-11 -25 -11 -25 4 -10 9 9 15 21 13 27 -2 6 -10 -2 -17
-17z"/>
<path d="M218 469 c-27 -15 -22 -47 7 -55 37 -9 75 3 75 24 0 37 -44 54 -82
31z"/>
<path d="M398 463 c18 -2 45 -2 60 0 15 2 0 4 -33 4 -33 0 -45 -2 -27 -4z"/>
<path d="M408 433 c23 -2 59 -2 80 0 20 2 1 4 -43 4 -44 0 -61 -2 -37 -4z"/>
<path d="M234 339 c-10 -17 13 -36 27 -22 12 12 4 33 -11 33 -5 0 -12 -5 -16
-11z"/>
<path d="M120 305 c-14 -15 -30 -23 -40 -20 -12 5 -13 4 -2 -7 10 -10 18 -6
44 20 18 18 30 32 27 32 -3 0 -16 -11 -29 -25z"/>
<path d="M47 313 c-9 -9 -9 -61 1 -66 4 -3 7 12 7 34 0 21 0 39 -1 39 0 0 -4
-3 -7 -7z"/>
<path d="M123 260 c-7 -10 -23 -20 -35 -23 -21 -4 -21 -4 -2 -6 20 -1 62 34
53 44 -3 2 -10 -4 -16 -15z"/>
<path d="M219 262 c-36 -30 -19 -54 33 -50 36 2 44 7 46 25 3 17 -3 26 -23 33
-33 13 -29 13 -56 -8z"/>
<path d="M398 263 c18 -2 45 -2 60 0 15 2 0 4 -33 4 -33 0 -45 -2 -27 -4z"/>
<path d="M408 223 c23 -2 59 -2 80 0 20 2 1 4 -43 4 -44 0 -61 -2 -37 -4z"/>
<path d="M234 139 c-10 -17 13 -36 27 -22 12 12 4 33 -11 33 -5 0 -12 -5 -16
-11z"/>
<path d="M62 114 c-26 -18 -29 -56 -4 -75 14 -11 15 -11 5 1 -20 22 -15 56 10
73 12 9 20 16 17 16 -3 1 -16 -6 -28 -15z"/>
<path d="M120 105 c-14 -15 -30 -23 -40 -20 -12 5 -13 4 -2 -7 10 -10 18 -6
44 20 18 18 30 32 27 32 -3 0 -16 -11 -29 -25z"/>
<path d="M131 68 c-1 -10 -13 -24 -28 -32 -16 -8 -23 -15 -17 -16 20 0 57 36
51 51 -4 11 -6 10 -6 -3z"/>
<path d="M212 58 c-33 -33 3 -62 63 -50 27 5 33 30 13 50 -15 15 -61 15 -76 0z"/>
<path d="M398 63 c18 -2 45 -2 60 0 15 2 0 4 -33 4 -33 0 -45 -2 -27 -4z"/>
<path d="M408 23 c23 -2 59 -2 80 0 20 2 1 4 -43 4 -44 0 -61 -2 -37 -4z"/>
</g>
</svg>
