<?xml version="1.0" standalone="no"?>
<!DOCTYPE svg PUBLIC "-//W3C//DTD SVG 20010904//EN"
 "http://www.w3.org/TR/2001/REC-SVG-20010904/DTD/svg10.dtd">
<svg version="1.0" xmlns="http://www.w3.org/2000/svg"
 width="50.000000pt" height="50.000000pt" viewBox="0 0 50.000000 50.000000"
 preserveAspectRatio="xMidYMid meet">

<g transform="translate(0.000000,50.000000) scale(0.100000,-0.100000)"
fill="#000000" stroke="none">
<path d="M220 436 c-28 -35 11 -93 48 -70 35 22 22 84 -18 84 -10 0 -23 -7
-30 -14z"/>
<path d="M192 314 c-19 -13 -22 -24 -22 -93 0 -42 4 -81 9 -87 5 -5 11 -24 13
-43 5 -51 28 -52 28 -2 0 39 2 41 30 41 28 0 30 -2 30 -41 0 -28 4 -39 13 -37
14 5 27 66 34 165 4 63 2 74 -16 92 -25 25 -86 28 -119 5z"/>
</g>
</svg>
