<?xml version="1.0" standalone="no"?>
<!DOCTYPE svg PUBLIC "-//W3C//DTD SVG 20010904//EN"
 "http://www.w3.org/TR/2001/REC-SVG-20010904/DTD/svg10.dtd">
<svg version="1.0" xmlns="http://www.w3.org/2000/svg"
 width="56.000000pt" height="56.000000pt" viewBox="0 0 56.000000 56.000000"
 preserveAspectRatio="xMidYMid meet">

<g transform="translate(0.000000,56.000000) scale(0.100000,-0.100000)"
fill="#000000" stroke="none">
<path d="M130 505 c-42 -19 -87 -60 -106 -97 -18 -35 -18 -121 1 -158 13 -25
13 -34 -1 -80 -8 -29 -13 -55 -9 -58 3 -3 29 6 58 20 58 28 74 26 157 -24 56
-33 113 -43 168 -29 37 11 47 9 93 -14 28 -15 53 -24 56 -22 2 3 -3 29 -12 59
-14 49 -14 58 0 84 21 41 19 117 -5 165 -22 41 -98 99 -132 99 -9 0 -38 14
-63 32 -37 26 -57 33 -108 35 -41 2 -74 -2 -97 -12z m178 -31 l26 -17 -48 -12
c-56 -14 -120 -72 -137 -123 -11 -34 -8 -100 6 -136 7 -15 5 -17 -13 -12 -13
4 -37 -1 -63 -14 -39 -20 -41 -21 -35 -3 17 42 17 72 2 101 -45 86 2 191 101
228 46 17 125 11 161 -12z m129 -65 c81 -39 113 -125 78 -214 -13 -36 -15 -52
-6 -77 14 -39 10 -43 -26 -25 -22 12 -49 14 -110 10 -75 -5 -85 -4 -126 20
-96 56 -113 171 -39 251 55 59 150 73 229 35z"/>
<path d="M270 260 c0 -5 5 -10 10 -10 6 0 10 5 10 10 0 6 -4 10 -10 10 -5 0
-10 -4 -10 -10z"/>
<path d="M335 260 c4 -6 11 -8 16 -5 14 9 11 15 -7 15 -8 0 -12 -5 -9 -10z"/>
<path d="M400 260 c0 -5 5 -10 10 -10 6 0 10 5 10 10 0 6 -4 10 -10 10 -5 0
-10 -4 -10 -10z"/>
</g>
</svg>
