<?xml version="1.0" standalone="no"?>
<!DOCTYPE svg PUBLIC "-//W3C//DTD SVG 20010904//EN"
 "http://www.w3.org/TR/2001/REC-SVG-20010904/DTD/svg10.dtd">
<svg version="1.0" xmlns="http://www.w3.org/2000/svg"
 width="64.000000pt" height="64.000000pt" viewBox="0 0 64.000000 64.000000"
 preserveAspectRatio="xMidYMid meet">

<g transform="translate(0.000000,64.000000) scale(0.100000,-0.100000)"
fill="#000000" stroke="none">
<path d="M107 624 c-4 -4 -7 -49 -7 -101 l0 -93 150 0 c127 0 150 2 150 15 0
11 12 15 50 15 38 0 50 -4 50 -15 0 -8 9 -15 20 -15 20 0 21 5 18 98 l-3 97
-211 3 c-115 1 -213 -1 -217 -4z"/>
<path d="M100 385 c0 -13 31 -15 220 -15 189 0 220 2 220 15 0 13 -31 15 -220
15 -189 0 -220 -2 -220 -15z"/>
<path d="M117 333 c-4 -3 -7 -21 -7 -40 l0 -33 60 0 c55 0 60 2 66 25 9 38
-11 55 -66 55 -25 0 -50 -3 -53 -7z"/>
<path d="M410 326 c-7 -9 -10 -26 -6 -41 6 -23 11 -25 67 -25 l60 0 -3 38 -3
37 -51 3 c-36 2 -54 -1 -64 -12z"/>
<path d="M40 300 c0 -5 9 -10 20 -10 11 0 20 5 20 10 0 6 -9 10 -20 10 -11 0
-20 -4 -20 -10z"/>
<path d="M260 300 c0 -5 9 -10 20 -10 11 0 20 5 20 10 0 6 -9 10 -20 10 -11 0
-20 -4 -20 -10z"/>
<path d="M340 300 c0 -5 9 -10 20 -10 11 0 20 5 20 10 0 6 -9 10 -20 10 -11 0
-20 -4 -20 -10z"/>
<path d="M560 300 c0 -5 9 -10 20 -10 11 0 20 5 20 10 0 6 -9 10 -20 10 -11 0
-20 -4 -20 -10z"/>
<path d="M63 200 c0 -36 2 -50 4 -32 2 17 2 47 0 65 -2 17 -4 3 -4 -33z"/>
<path d="M273 195 c0 -38 2 -53 4 -32 2 20 2 52 0 70 -2 17 -4 1 -4 -38z"/>
<path d="M363 195 c0 -38 2 -53 4 -32 2 20 2 52 0 70 -2 17 -4 1 -4 -38z"/>
<path d="M573 200 c0 -36 2 -50 4 -32 2 17 2 47 0 65 -2 17 -4 3 -4 -33z"/>
<path d="M131 223 c0 -13 -8 -23 -16 -23 -8 0 -15 -7 -15 -15 0 -12 15 -15 75
-15 60 0 75 3 75 15 0 8 -9 15 -19 15 -12 0 -21 8 -24 23 l-4 22 -2 -22 c-2
-33 -58 -33 -64 0 l-4 22 -2 -22z"/>
<path d="M431 223 c-1 -16 -7 -23 -21 -23 -11 0 -20 -7 -20 -15 0 -12 15 -15
75 -15 60 0 75 3 75 15 0 8 -6 15 -14 15 -8 0 -17 10 -19 23 l-4 22 -2 -22
c-2 -33 -58 -33 -64 0 l-4 22 -2 -22z"/>
<path d="M112 125 c0 -16 2 -22 5 -12 2 9 2 23 0 30 -3 6 -5 -1 -5 -18z"/>
<path d="M222 125 c0 -16 2 -22 5 -12 2 9 2 23 0 30 -3 6 -5 -1 -5 -18z"/>
<path d="M412 125 c0 -16 2 -22 5 -12 2 9 2 23 0 30 -3 6 -5 -1 -5 -18z"/>
<path d="M522 125 c0 -16 2 -22 5 -12 2 9 2 23 0 30 -3 6 -5 -1 -5 -18z"/>
</g>
</svg>
