<?xml version="1.0" standalone="no"?>
<!DOCTYPE svg PUBLIC "-//W3C//DTD SVG 20010904//EN"
 "http://www.w3.org/TR/2001/REC-SVG-20010904/DTD/svg10.dtd">
<svg version="1.0" xmlns="http://www.w3.org/2000/svg"
 width="74.000000pt" height="56.000000pt" viewBox="0 0 74.000000 56.000000"
 preserveAspectRatio="xMidYMid meet">

<g transform="translate(0.000000,56.000000) scale(0.100000,-0.100000)"
fill="#000000" stroke="none">
<path d="M24 529 c-18 -19 -19 -39 -19 -250 0 -204 2 -230 18 -246 16 -16 17
-5 17 235 l0 252 330 0 330 0 0 -252 c0 -240 1 -251 18 -235 15 16 17 42 17
246 0 211 -1 231 -19 250 -19 21 -26 21 -346 21 -320 0 -327 0 -346 -21z"/>
<path d="M134 447 c-2 -7 -3 -87 -2 -177 l3 -165 235 0 235 0 0 175 0 175
-233 3 c-184 2 -234 0 -238 -11z m436 -89 l0 -62 -38 37 -38 37 -59 -60 c-33
-33 -62 -60 -65 -60 -4 0 -25 16 -49 36 -47 41 -39 43 -118 -30 l-33 -30 0 97
0 97 200 0 200 0 0 -62z m-32 -78 c27 -32 32 -47 32 -89 l0 -51 -200 0 -200 0
0 23 c0 16 18 39 56 71 l56 49 37 -37 c20 -20 40 -36 45 -36 4 0 36 25 69 55
34 30 64 55 67 55 3 0 20 -18 38 -40z"/>
<path d="M135 39 c-3 -3 5 -15 16 -25 22 -20 51 -11 57 19 2 11 -5 15 -33 14
-20 -1 -38 -4 -40 -8z"/>
<path d="M277 34 c-13 -13 5 -24 39 -24 24 0 34 5 34 15 0 10 -10 15 -33 15
-19 0 -37 -3 -40 -6z"/>
<path d="M417 34 c-13 -13 5 -24 39 -24 24 0 34 5 34 15 0 10 -10 15 -33 15
-19 0 -37 -3 -40 -6z"/>
</g>
</svg>
